<svg xmlns="http://www.w3.org/2000/svg" viewBox="0 0 1200 650" width="100%" height="auto" fill="none" style="shape-rendering: geometricPrecision;">
  <defs>
    <!-- Car Metallic Paint Gradients -->
    <linearGradient id="bodyBase" x1="0%" y1="0%" x2="100%" y2="50%">
      <stop offset="0%" stop-color="#1967D2"/>
      <stop offset="35%" stop-color="#2176FF"/>
      <stop offset="70%" stop-color="#1B62D4"/>
      <stop offset="100%" stop-color="#0F4396"/>
    </linearGradient>

    <linearGradient id="hoodShine" x1="0%" y1="0%" x2="100%" y2="80%">
      <stop offset="0%" stop-color="#60A5FA" stop-opacity="0.6"/>
      <stop offset="100%" stop-color="#2563EB" stop-opacity="0"/>
    </linearGradient>

    <linearGradient id="windshieldTint" x1="0%" y1="0%" x2="80%" y2="100%">
      <stop offset="0%" stop-color="#EFF6FF"/>
      <stop offset="45%" stop-color="#BFDBFE"/>
      <stop offset="100%" stop-color="#93C5FD"/>
    </linearGradient>

    <!-- 3D Dial & Rim Gradients -->
    <linearGradient id="goldBezel" x1="0%" y1="0%" x2="100%" y2="100%">
      <stop offset="0%" stop-color="#FDE047"/>
      <stop offset="45%" stop-color="#FACC15"/>
      <stop offset="85%" stop-color="#EAB308"/>
      <stop offset="100%" stop-color="#CA8A04"/>
    </linearGradient>

    <linearGradient id="dialInner" x1="0%" y1="0%" x2="0%" y2="100%">
      <stop offset="0%" stop-color="#FFFFFF"/>
      <stop offset="100%" stop-color="#F1F5F9"/>
    </linearGradient>

    <!-- Shadow Filters -->
    <filter id="carDropShadow" x="-10%" y="-20%" width="120%" height="140%">
      <feGaussianBlur stdDeviation="8" result="blur"/>
      <feColorMatrix type="matrix" values="0 0 0 0 0   0 0 0 0 0   0 0 0 0 0  0 0 0 0.22 0"/>
    </filter>

    <filter id="clock3DShadow" x="-25%" y="-20%" width="150%" height="150%">
      <feDropShadow dx="4" dy="12" stdDeviation="9" flood-color="#000000" flood-opacity="0.32"/>
    </filter>
  </defs>

  <!-- Ambient Ground Shadows -->
  <ellipse cx="680" cy="530" rx="460" ry="20" fill="url(#carDropShadow)"/>
  <ellipse cx="300" cy="552" rx="105" ry="14" fill="#000000" opacity="0.28"/>

  <!-- ================= SLEEK BLUE SEDAN ================= -->
  <g id="car-chassis">
    <!-- Amber Tail Lamp Accent -->
    <path d="M 215 325 C 228 325 240 335 240 350 L 210 350 Z" fill="#F59E0B"/>

    <!-- REAR WHEEL -->
    <g transform="translate(295, 460)">
      <circle cx="0" cy="0" r="62" fill="#1E293B"/>
      <circle cx="0" cy="0" r="57" fill="#0F172A"/>
      <circle cx="0" cy="0" r="43" fill="#94A3B8"/>
      <circle cx="0" cy="0" r="39" fill="#1E293B"/>
      <!-- Alloy Spokes -->
      <path d="M-34 0 L34 0 M0 -34 L0 34 M-24 -24 L24 24 M-24 24 L24 -24" stroke="#F1F5F9" stroke-width="4" stroke-linecap="round"/>
      <circle cx="0" cy="0" r="12" fill="#0F172A"/>
      <circle cx="0" cy="0" r="4" fill="#CBD5E1"/>
      <path d="M 16 -24 A 28 28 0 0 1 30 -2" stroke="#EF4444" stroke-width="7" fill="none" stroke-linecap="round"/>
    </g>

    <!-- FRONT-LEFT WHEEL -->
    <g transform="translate(865, 460)">
      <circle cx="0" cy="0" r="62" fill="#1E293B"/>
      <circle cx="0" cy="0" r="57" fill="#0F172A"/>
      <circle cx="0" cy="0" r="43" fill="#94A3B8"/>
      <circle cx="0" cy="0" r="39" fill="#1E293B"/>
      <path d="M-34 0 L34 0 M0 -34 L0 34 M-24 -24 L24 24 M-24 24 L24 -24" stroke="#F1F5F9" stroke-width="4" stroke-linecap="round"/>
      <circle cx="0" cy="0" r="12" fill="#0F172A"/>
      <circle cx="0" cy="0" r="4" fill="#CBD5E1"/>
      <path d="M 16 -24 A 28 28 0 0 1 30 -2" stroke="#EF4444" stroke-width="7" fill="none" stroke-linecap="round"/>
    </g>

    <!-- FRONT-RIGHT WHEEL (Perspective Under Car) -->
    <g transform="translate(1085, 485)">
      <ellipse cx="0" cy="0" rx="50" ry="21" fill="#0F172A"/>
      <ellipse cx="0" cy="0" rx="34" ry="12" fill="#334155"/>
      <ellipse cx="0" cy="0" rx="14" ry="5" fill="#0F172A"/>
    </g>

    <!-- Underbody Chassis Guard -->
    <path d="M 360 475 L 800 475 L 790 488 L 370 488 Z" fill="#0B0F17"/>

    <!-- MAIN BODY SILHOUETTE -->
    <path d="
      M 195 375
      C 190 325, 215 290, 265 280
      L 375 275
      C 435 190, 515 150, 660 150
      L 790 150
      C 870 150, 925 208, 975 284
      L 1125 300
      C 1170 305, 1205 340, 1215 375
      C 1220 410, 1195 442, 1145 462
      L 935 470
      A 70 70 0 0 0 795 470
      L 365 470
      A 70 70 0 0 0 225 470
      L 198 435
      C 190 415, 190 390, 195 375 Z
    " fill="url(#bodyBase)" stroke="#1248A0" stroke-width="2"/>

    <!-- Dynamic Roof & Hood Shoulder Flare -->
    <path d="
      M 380 278 
      C 440 192, 520 155, 660 155 
      L 790 155 
      C 865 155, 920 210, 970 288 
      L 1120 304 
      C 1155 310, 1185 335, 1200 365 
      C 1140 345, 1020 325, 925 295 
      C 780 252, 590 242, 390 268 
      C 300 278, 250 288, 245 292 
      L 380 278 Z
    " fill="url(#hoodShine)"/>

    <!-- Sharp Tornado Character Crease -->
    <path d="M 200 365 Q 590 335 1190 375" stroke="#93C5FD" stroke-width="2.5" fill="none" opacity="0.85"/>
    <path d="M 210 370 Q 590 340 1185 380" stroke="#0D3B82" stroke-width="2" fill="none" opacity="0.5"/>

    <!-- Lower Sill Inset -->
    <path d="M 370 452 L 795 452 L 785 463 L 375 463 Z" fill="#0C2F66"/>

    <!-- GLASS GREENHOUSE -->
    <path d="M 390 268 C 440 196, 505 164, 558 164 L 558 260 L 370 268 Z" fill="url(#windshieldTint)"/>
    <path d="M 572 164 L 755 164 L 755 260 L 572 260 Z" fill="url(#windshieldTint)"/>
    <path d="M 770 164 C 830 164, 885 196, 955 260 L 770 260 Z" fill="url(#windshieldTint)"/>

    <!-- Window Glare Lines -->
    <path d="M 505 166 L 430 264 L 462 264 L 538 166 Z" fill="#FFFFFF" opacity="0.55"/>
    <path d="M 700 166 L 625 260 L 658 260 L 732 166 Z" fill="#FFFFFF" opacity="0.55"/>
    <path d="M 875 180 L 805 260 L 840 260 L 908 205 Z" fill="#FFFFFF" opacity="0.55"/>

    <!-- Window Pillars & Chrome Trim -->
    <rect x="558" y="158" width="14" height="106" fill="#0F172A"/>
    <rect x="755" y="158" width="14" height="106" fill="#0F172A"/>
    <path d="M 370 272 C 430 190, 510 158, 660 158 L 790 158 C 860 158, 915 200, 965 266" stroke="#F1F5F9" stroke-width="3.5" fill="none" stroke-linecap="round"/>

    <!-- Side Mirror -->
    <path d="M 770 248 C 800 234, 828 238, 828 256 C 828 266, 800 268, 770 262 Z" fill="#1D4ED8" stroke="#93C5FD" stroke-width="1.5"/>
    <ellipse cx="800" cy="258" rx="7" ry="3" fill="#0F172A"/>

    <!-- Door Seams & Flush Handles -->
    <path d="M 565 262 L 558 445" stroke="#0F3877" stroke-width="2"/>
    <path d="M 765 262 L 755 445" stroke="#0F3877" stroke-width="2"/>
    <rect x="480" y="290" width="44" height="7" rx="3.5" fill="#1E3A8A" stroke="#93C5FD" stroke-width="1.2"/>
    <rect x="675" y="290" width="44" height="7" rx="3.5" fill="#1E3A8A" stroke="#93C5FD" stroke-width="1.2"/>

    <!-- FRONT MATRIX LED HEADLIGHT -->
    <path d="M 978 298 L 1135 314 C 1155 330, 1140 348, 1110 354 L 978 324 Z" fill="#F8FAFC" stroke="#93C5FD" stroke-width="2"/>
    <path d="M 1005 308 L 1115 320" stroke="#38BDF8" stroke-width="4.5" stroke-linecap="round"/>
    <circle cx="1040" cy="316" r="6" fill="#0284C7"/>
    <circle cx="1080" cy="321" r="6" fill="#0284C7"/>

    <!-- Front Sport Grille & Golden Emblem -->
    <path d="M 1135 334 L 1205 344 C 1215 368, 1208 402, 1172 412 L 1105 400 Z" fill="#0F172A" stroke="#334155" stroke-width="2"/>
    <polygon points="1165,358 1176,365 1165,372 1154,365" fill="#FFEA00"/>

    <!-- Front Lower Aerodynamic Lip -->
    <path d="M 1030 452 L 1190 456 C 1200 460, 1180 470, 1145 470 L 1010 460 Z" fill="#020617"/>
  </g>

  <!-- ================= PREMIUM 3D FOREGROUND CLOCK ================= -->
  <g id="premium-clock" filter="url(#clock3DShadow)" transform="translate(300, 395)">
    <!-- Outer Gold Bezel Rim -->
    <circle cx="0" cy="0" r="116" fill="url(#goldBezel)" stroke="#B45309" stroke-width="2.5"/>

    <!-- Inner Metallic Inset Ring -->
    <circle cx="0" cy="0" r="102" fill="#D97706" opacity="0.3"/>
    <circle cx="0" cy="0" r="96" fill="#FEF08A" opacity="0.4"/>

    <!-- Dial Face (Crisp Radial White) -->
    <circle cx="0" cy="0" r="92" fill="url(#dialInner)"/>

    <!-- Dial Gloss Reflex Arc -->
    <path d="M -65 -65 C -20 -92 40 -86 76 -50 L -42 68 C -78 32 -88 -30 -65 -65 Z" fill="#FFFFFF" opacity="0.6"/>

    <!-- Hour Markers (Cardinal Points - Bold Modern) -->
    <line x1="0" y1="-84" x2="0" y2="-68" stroke="#0F172A" stroke-width="5" stroke-linecap="round"/>
    <line x1="84" y1="0" x2="68" y2="0" stroke="#0F172A" stroke-width="5" stroke-linecap="round"/>
    <line x1="0" y1="84" x2="0" y2="68" stroke="#0F172A" stroke-width="5" stroke-linecap="round"/>
    <line x1="-84" y1="0" x2="-68" y2="0" stroke="#0F172A" stroke-width="5" stroke-linecap="round"/>

    <!-- Intermediate Hour Ticks -->
    <line x1="42" y1="-73" x2="34" y2="-59" stroke="#64748B" stroke-width="3" stroke-linecap="round"/>
    <line x1="73" y1="-42" x2="59" y2="-34" stroke="#64748B" stroke-width="3" stroke-linecap="round"/>
    <line x1="73" y1="42" x2="59" y2="34" stroke="#64748B" stroke-width="3" stroke-linecap="round"/>
    <line x1="42" y1="73" x2="34" y2="59" stroke="#64748B" stroke-width="3" stroke-linecap="round"/>
    <line x1="-42" y1="73" x2="-34" y2="59" stroke="#64748B" stroke-width="3" stroke-linecap="round"/>
    <line x1="-73" y1="42" x2="-59" y2="34" stroke="#64748B" stroke-width="3" stroke-linecap="round"/>
    <line x1="-73" y1="-42" x2="-59" y2="-34" stroke="#64748B" stroke-width="3" stroke-linecap="round"/>
    <line x1="-42" y1="-73" x2="-34" y2="-59" stroke="#64748B" stroke-width="3" stroke-linecap="round"/>

    <!-- Clock Hands (Displaying ~7:00 Fast-Service Style) -->
    <!-- Hour Hand -->
    <line x1="0" y1="0" x2="-28" y2="46" stroke="#0F172A" stroke-width="6.5" stroke-linecap="round"/>
    <line x1="0" y1="0" x2="-27" y2="44" stroke="#334155" stroke-width="3" stroke-linecap="round"/>

    <!-- Minute Hand -->
    <line x1="0" y1="0" x2="0" y2="-65" stroke="#0F172A" stroke-width="5.5" stroke-linecap="round"/>
    <line x1="0" y1="0" x2="0" y2="-63" stroke="#334155" stroke-width="2.5" stroke-linecap="round"/>

    <!-- Sleek Red Seconds Hand -->
    <line x1="0" y1="14" x2="42" y2="-50" stroke="#EF4444" stroke-width="2" stroke-linecap="round"/>

    <!-- Center Pivot Cap -->
    <circle cx="0" cy="0" r="7.5" fill="#EF4444"/>
    <circle cx="0" cy="0" r="3" fill="#FFFFFF"/>
  </g>
</svg>
